<svg xmlns="http://www.w3.org/2000/svg" viewBox="0 0 101.21 101.21"><defs><style>.cls-1{fill:#fcfcfc;}.cls-2{fill:#ed1c24;}</style></defs><title>110</title><g id="Capa_2" data-name="Capa 2"><g id="Capa_1-2" data-name="Capa 1"><path class="cls-1" d="M101.21,50.61A50.61,50.61,0,1,1,50.61,0a50.61,50.61,0,0,1,50.61,50.61"/><path class="cls-2" d="M50.61,99.75A49.15,49.15,0,1,1,99.75,50.61,49.2,49.2,0,0,1,50.61,99.75m0-84.06A34.91,34.91,0,1,0,85.52,50.61,35,35,0,0,0,50.61,15.69"/><path d="M27.86,43.28h-.08l-4.48,3c-.25.16-.46.08-.46-.24V41a.65.65,0,0,1,.29-.56l4.73-3.3a1.18,1.18,0,0,1,.75-.24h4.64a.39.39,0,0,1,.41.4V63.89a.39.39,0,0,1-.41.4h-5a.39.39,0,0,1-.41-.4Z"/><path d="M47.81,43.28h-.08l-4.48,3c-.25.16-.46.08-.46-.24V41a.65.65,0,0,1,.29-.56l4.73-3.3a1.18,1.18,0,0,1,.75-.24H53.2a.39.39,0,0,1,.41.4V63.89a.39.39,0,0,1-.41.4h-5a.39.39,0,0,1-.41-.4Z"/><path d="M60.12,50.61c0-6.08.21-7.33.62-8.54,1.16-3.5,4.06-5.6,8.5-5.6s7.34,2.09,8.5,5.6c.41,1.21.62,2.46.62,8.54s-.21,7.33-.62,8.54c-1.16,3.5-4.06,5.6-8.5,5.6s-7.34-2.09-8.5-5.6c-.41-1.21-.62-2.46-.62-8.54M69.25,60a2.7,2.7,0,0,0,2.86-1.85c.25-.72.33-1.53.33-7.53s-.08-6.8-.33-7.53a2.7,2.7,0,0,0-2.86-1.85,2.67,2.67,0,0,0-2.86,1.85c-.25.72-.33,1.53-.33,7.53s.08,6.8.33,7.53A2.67,2.67,0,0,0,69.25,60"/></g></g></svg>