<svg version="1.2" xmlns="http://www.w3.org/2000/svg" viewBox="0 0 102 102" width="102" height="102">
	<title>110-svg</title>
	<style>
		.s0 { fill: #fcfcfc } 
		.s1 { fill: #ed1c24 } 
		.s2 { fill: #000000 } 
	</style>
	<g id="Capa_2">
		<g id="Capa_1-2">
			<path id="Layer" class="s0" d="m101.2 50.6c0 20.5-12.3 38.9-31.2 46.8-18.9 7.8-40.7 3.5-55.2-11-14.5-14.5-18.8-36.3-11-55.2 7.9-18.9 26.3-31.2 46.8-31.2 6.7 0 13.2 1.3 19.4 3.9 6.1 2.5 11.7 6.2 16.4 10.9 4.7 4.7 8.4 10.3 11 16.4 2.5 6.2 3.8 12.8 3.8 19.4z"/>
			<path id="Layer" fill-rule="evenodd" class="s1" d="m50.6 99.8c-19.9 0-37.8-12-45.4-30.4-7.6-18.4-3.4-39.5 10.6-53.6 14.1-14 35.2-18.2 53.6-10.6 18.4 7.6 30.4 25.5 30.4 45.4-0.1 6.5-1.3 12.8-3.8 18.8-2.5 6-6.1 11.4-10.7 15.9-4.5 4.6-9.9 8.2-15.9 10.7-6 2.5-12.3 3.7-18.8 3.8zm0-84.1c-14.1 0-26.8 8.5-32.2 21.5-5.4 13.1-2.5 28.1 7.5 38.1 10 10 25 13 38.1 7.6 13-5.4 21.5-18.2 21.5-32.3 0-4.6-0.9-9.1-2.7-13.3-1.7-4.3-4.3-8.1-7.5-11.4-3.3-3.2-7.1-5.8-11.3-7.5-4.3-1.8-8.8-2.7-13.4-2.7z"/>
			<path id="Layer" class="s2" d="m27.9 43.3h-0.1l-4.5 3c-0.2 0.1-0.5 0.1-0.5-0.3v-5q0-0.1 0.1-0.2 0 0 0-0.1 0.1-0.1 0.1-0.2 0.1 0 0.1-0.1l4.8-3.3q0 0 0.1-0.1 0.1 0 0.2 0 0.1-0.1 0.2-0.1 0.1 0 0.2 0h4.7q0 0 0.1 0 0.1 0.1 0.1 0.1 0.1 0.1 0.1 0.1 0.1 0.1 0.1 0.2v26.6q0 0.1-0.1 0.1 0 0.1-0.1 0.2 0 0-0.1 0.1-0.1 0-0.1 0h-5q-0.1 0-0.2 0-0.1-0.1-0.1-0.1-0.1-0.1-0.1-0.2-0.1 0-0.1-0.1z"/>
			<path id="Layer" class="s2" d="m37.7 58.2l4.7-0.9q0.1 0 0.2 0 0.1 0.1 0.1 0.1 0.1 0.1 0.2 0.1 0 0.1 0 0.2 0.2 0.6 0.6 1.1 0.4 0.5 0.9 0.9 0.5 0.3 1.1 0.5 0.6 0.2 1.3 0.1 0.7 0.1 1.4-0.2 0.7-0.3 1.2-0.8 0.5-0.5 0.8-1.2 0.2-0.7 0.2-1.4c0-2.6-1.6-4-4.1-4h-1.3q-0.1 0-0.1-0.1-0.1 0-0.2 0 0-0.1-0.1-0.2 0-0.1 0-0.1v-4.1q0-0.1 0-0.2 0.1 0 0.1-0.1 0.1-0.1 0.2-0.1 0 0 0.1 0h1.2q0.7 0 1.4-0.2 0.7-0.3 1.2-0.8 0.5-0.5 0.8-1.2 0.3-0.6 0.2-1.4 0.1-0.6-0.2-1.3-0.2-0.6-0.7-1.1-0.5-0.5-1.1-0.7-0.6-0.3-1.3-0.2-0.6 0-1.2 0.1-0.5 0.2-1 0.6-0.4 0.4-0.7 0.9-0.3 0.5-0.4 1.1 0 0-0.1 0.1 0 0.1-0.1 0.1-0.1 0.1-0.2 0.1-0.1 0-0.1-0.1l-4.7-0.8q-0.1 0-0.2-0.1-0.1 0-0.1-0.1-0.1 0-0.1-0.1 0-0.1 0-0.2c0.7-3.7 4-6.5 9.2-6.5 5.7 0 9 3.3 9 7.8q0 0.9-0.2 1.8-0.2 0.8-0.6 1.6-0.5 0.8-1.1 1.4-0.6 0.6-1.3 1.1v0.1c1.7 0.8 3.8 3.1 3.8 6.9 0 5.2-4.1 8.6-9.6 8.6-4.9 0-8.6-2.4-9.5-6.5q0-0.1 0-0.2 0-0.1 0.1-0.1 0-0.1 0.1-0.2 0.1 0 0.2 0"/>
			<path id="Layer" fill-rule="evenodd" class="s2" d="m60.1 50.6c0-6.1 0.2-7.3 0.6-8.5 1.2-3.5 4.1-5.6 8.5-5.6 4.5 0 7.4 2.1 8.5 5.6 0.4 1.2 0.7 2.4 0.7 8.5 0 6.1-0.2 7.3-0.7 8.5-1.1 3.5-4 5.6-8.5 5.6-4.4 0-7.3-2-8.5-5.6-0.4-1.2-0.6-2.4-0.6-8.5zm9.1 9.4q0.5 0 1-0.1 0.4-0.1 0.8-0.3 0.4-0.3 0.7-0.6 0.3-0.4 0.4-0.9c0.3-0.7 0.3-1.5 0.3-7.5 0-6 0-6.8-0.3-7.5q-0.1-0.5-0.4-0.8-0.3-0.4-0.7-0.6-0.4-0.3-0.8-0.4-0.5-0.1-1-0.1-0.4 0-0.9 0.1-0.4 0.1-0.8 0.3-0.4 0.3-0.7 0.7-0.3 0.3-0.4 0.8c-0.3 0.7-0.3 1.5-0.3 7.5 0 6 0 6.8 0.3 7.5q0.1 0.5 0.4 0.9 0.3 0.3 0.7 0.6 0.4 0.2 0.8 0.3 0.5 0.2 0.9 0.1z"/>
		</g>
	</g>
</svg>