<svg xmlns="http://www.w3.org/2000/svg" viewBox="0 0 101.21 101.21"><defs><style>.cls-1{fill:#fcfcfc;}.cls-2{fill:#ed1c24;}</style></defs><title>15</title><g id="Capa_2" data-name="Capa 2"><g id="Capa_1-2" data-name="Capa 1"><path class="cls-1" d="M101.21,50.61A50.61,50.61,0,1,1,50.61,0a50.61,50.61,0,0,1,50.61,50.61"/><path class="cls-2" d="M50.61,99.75A49.15,49.15,0,1,1,99.75,50.61,49.2,49.2,0,0,1,50.61,99.75m0-84.06A34.91,34.91,0,1,0,85.52,50.61,35,35,0,0,0,50.61,15.69"/><path d="M35.75,41.8h-.1l-5.23,3.48c-.29.19-.53.09-.53-.28V39.17a.75.75,0,0,1,.34-.66l5.52-3.85a1.38,1.38,0,0,1,.87-.28H42a.45.45,0,0,1,.48.47v31a.45.45,0,0,1-.48.47H36.23a.45.45,0,0,1-.48-.47Z"/><path d="M51.14,59.27l5.23-1a.49.49,0,0,1,.58.38,3.82,3.82,0,0,0,3.82,2.63A3.33,3.33,0,0,0,64.2,59a8.52,8.52,0,0,0,.39-3.1,8.49,8.49,0,0,0-.39-3.15,3.26,3.26,0,0,0-3.44-2.21,3.55,3.55,0,0,0-3.34,1.83c-.14.33-.29.47-.63.47H51.62a.45.45,0,0,1-.48-.47V34.84a.45.45,0,0,1,.48-.47H70a.45.45,0,0,1,.48.47v4.65A.45.45,0,0,1,70,40H57.38a.25.25,0,0,0-.29.28v6.3h.14A7.62,7.62,0,0,1,62.17,45c4.21,0,7.26,1.83,8.47,5.4a16.33,16.33,0,0,1,.68,5.45,15.81,15.81,0,0,1-.73,5c-1.31,3.9-5,6-9.73,6-5.61,0-9.53-2.87-10.11-7a.43.43,0,0,1,.39-.52"/></g></g></svg>