<svg xmlns="http://www.w3.org/2000/svg" viewBox="0 0 101.21 101.21"><defs><style>.cls-1{fill:#fcfcfc;}.cls-2{fill:#ed1c24;}</style></defs><title>30</title><g id="Capa_2" data-name="Capa 2"><g id="Capa_1-2" data-name="Capa 1"><path class="cls-1" d="M101.21,50.61A50.61,50.61,0,1,1,50.61,0a50.61,50.61,0,0,1,50.61,50.61"/><path class="cls-2" d="M50.61,99.75A49.15,49.15,0,1,1,99.75,50.61,49.2,49.2,0,0,1,50.61,99.75m0-84.06A34.91,34.91,0,1,0,85.52,50.61,35,35,0,0,0,50.61,15.69"/><path d="M28.67,59.16l5.32-1a.49.49,0,0,1,.58.38,4.29,4.29,0,0,0,4.31,3,3.88,3.88,0,0,0,4.06-4.13c0-2.87-1.79-4.51-4.6-4.51h-1.4a.45.45,0,0,1-.48-.47V47.88a.45.45,0,0,1,.48-.47h1.31a3.77,3.77,0,0,0,4.06-4,3.49,3.49,0,0,0-3.73-3.76,3.6,3.6,0,0,0-3.73,3,.46.46,0,0,1-.58.33L29,42a.41.41,0,0,1-.39-.52c.77-4.23,4.5-7.33,10.31-7.33,6.44,0,10.16,3.71,10.16,8.83a7.6,7.6,0,0,1-3.68,6.58v.09c2,.94,4.31,3.52,4.31,7.75,0,5.83-4.55,9.73-10.74,9.73-5.61,0-9.77-2.73-10.69-7.33a.52.52,0,0,1,.39-.61"/><path d="M51.65,50.61c0-7.09.24-8.55.73-10,1.35-4.09,4.74-6.53,9.92-6.53s8.57,2.44,9.92,6.53c.48,1.41.73,2.87.73,10s-.24,8.55-.73,10c-1.35,4.09-4.74,6.53-9.92,6.53s-8.57-2.44-9.92-6.53c-.48-1.41-.73-2.87-.73-10M62.3,61.55a3.15,3.15,0,0,0,3.34-2.16c.29-.85.39-1.79.39-8.79s-.1-7.94-.39-8.79a3.15,3.15,0,0,0-3.34-2.16A3.12,3.12,0,0,0,59,41.82c-.29.85-.39,1.79-.39,8.79s.1,7.94.39,8.79a3.12,3.12,0,0,0,3.34,2.16"/></g></g></svg>