<svg xmlns="http://www.w3.org/2000/svg" viewBox="0 0 101.21 101.21"><defs><style>.cls-1{fill:#fcfcfc;}.cls-2{fill:#ed1c24;}</style></defs><title>50</title><g id="Capa_2" data-name="Capa 2"><g id="Capa_1-2" data-name="Capa 1"><path class="cls-1" d="M101.21,50.61A50.61,50.61,0,1,1,50.61,0a50.61,50.61,0,0,1,50.61,50.61"/><path class="cls-2" d="M50.61,99.75A49.15,49.15,0,1,1,99.75,50.61,49.2,49.2,0,0,1,50.61,99.75m0-84.06A34.91,34.91,0,1,0,85.52,50.61,35,35,0,0,0,50.61,15.69"/><path d="M29,59.53l5.23-1a.49.49,0,0,1,.58.38,3.82,3.82,0,0,0,3.82,2.63,3.33,3.33,0,0,0,3.44-2.26,8.53,8.53,0,0,0,.39-3.1A8.49,8.49,0,0,0,42.09,53a3.26,3.26,0,0,0-3.44-2.21,3.55,3.55,0,0,0-3.34,1.83c-.14.33-.29.47-.63.47H29.51a.45.45,0,0,1-.48-.47V35.1a.45.45,0,0,1,.48-.47H47.9a.45.45,0,0,1,.48.47v4.65a.45.45,0,0,1-.48.47H35.27a.25.25,0,0,0-.29.28v6.3h.15a7.62,7.62,0,0,1,4.94-1.5c4.21,0,7.26,1.83,8.47,5.4a16.34,16.34,0,0,1,.68,5.45,15.81,15.81,0,0,1-.73,5c-1.31,3.9-5,6-9.73,6-5.61,0-9.53-2.87-10.11-7a.43.43,0,0,1,.39-.52"/><path d="M51.29,50.61c0-7.09.24-8.55.73-10,1.35-4.09,4.74-6.53,9.92-6.53s8.57,2.44,9.92,6.53c.48,1.41.73,2.87.73,10s-.24,8.55-.73,10c-1.36,4.09-4.74,6.53-9.92,6.53S53.37,64.65,52,60.57c-.48-1.41-.73-2.87-.73-10M61.93,61.55a3.15,3.15,0,0,0,3.34-2.16c.29-.85.39-1.79.39-8.79s-.1-7.94-.39-8.79a3.15,3.15,0,0,0-3.34-2.16,3.12,3.12,0,0,0-3.34,2.16c-.29.85-.39,1.79-.39,8.79s.1,7.94.39,8.79a3.12,3.12,0,0,0,3.34,2.16"/></g></g></svg>