<svg xmlns="http://www.w3.org/2000/svg" viewBox="0 0 101.21 101.21"><defs><style>.cls-1{fill:#fcfcfc;}.cls-2{fill:#ed1c24;}</style></defs><title>80</title><g id="Capa_2" data-name="Capa 2"><g id="Capa_1-2" data-name="Capa 1"><path class="cls-1" d="M101.21,50.61A50.61,50.61,0,1,1,50.61,0a50.61,50.61,0,0,1,50.61,50.61"/><path class="cls-2" d="M50.61,99.75A49.15,49.15,0,1,1,99.75,50.61,49.2,49.2,0,0,1,50.61,99.75m0-84.06A34.91,34.91,0,1,0,85.52,50.61,35,35,0,0,0,50.61,15.69"/><path d="M32,49.9v-.09a7.91,7.91,0,0,1-3.19-6.39c0-4.93,3.73-9.3,10.4-9.3s10.4,4.37,10.4,9.3a7.91,7.91,0,0,1-3.19,6.39v.09a8.75,8.75,0,0,1,3.92,7.47c0,5.87-4.74,9.73-11.13,9.73s-11.13-3.85-11.13-9.73A8.75,8.75,0,0,1,32,49.9m7.21,11.65a4.44,4.44,0,1,0,0-8.88,4.44,4.44,0,1,0,0,8.88M43,43.42a3.77,3.77,0,1,0-3.77,3.71A3.66,3.66,0,0,0,43,43.42"/><path d="M51.84,50.61c0-7.09.24-8.55.73-10,1.35-4.09,4.74-6.53,9.92-6.53s8.57,2.44,9.92,6.53c.48,1.41.73,2.87.73,10s-.24,8.55-.73,10c-1.36,4.09-4.74,6.53-9.92,6.53s-8.57-2.44-9.92-6.53c-.48-1.41-.73-2.87-.73-10M62.49,61.55a3.15,3.15,0,0,0,3.34-2.16c.29-.85.39-1.79.39-8.79s-.1-7.94-.39-8.79a3.15,3.15,0,0,0-3.34-2.16,3.12,3.12,0,0,0-3.34,2.16c-.29.85-.39,1.79-.39,8.79s.1,7.94.39,8.79a3.12,3.12,0,0,0,3.34,2.16"/></g></g></svg>