<svg xmlns="http://www.w3.org/2000/svg" viewBox="0 0 319.65 144.88" fill='#ffffff'><title>Auto</title><g fill='#ffffff' id="Capa_2" data-name="Capa 2"><g id="Capa_1-2" data-name="Capa 1"><path d="M67.43,89.94a17.48,17.48,0,1,0,17.48,17.48A17.5,17.5,0,0,0,67.43,89.94m0,25a7.49,7.49,0,1,1,7.49-7.49,7.5,7.5,0,0,1-7.49,7.49"/><path d="M252.2,89.94a17.48,17.48,0,1,0,17.48,17.48A17.5,17.5,0,0,0,252.2,89.94m0,25a7.49,7.49,0,1,1,7.49-7.49,7.5,7.5,0,0,1-7.49,7.49"/><path d="M287.51,119.91h27.14a5,5,0,0,0,5-5v-25a5,5,0,0,0-5-5V80A34.83,34.83,0,0,0,285.5,45.47a1.22,1.22,0,0,0-.16,0c-.06,0-.11,0-.16-.05l-53.35-5.26C224.28,33.79,182.64.67,131.4,0H128C77.4.67,36.23,29.13,28.32,35H5a5,5,0,0,0-5,5v60c0,.12.06.22.07.33a4.58,4.58,0,0,0,.21,1,4.19,4.19,0,0,0,.3.87,4.35,4.35,0,0,0,.51.75,5.07,5.07,0,0,0,.7.78c.09.07.13.18.23.25l20,15a4.72,4.72,0,0,0,.66.34,5.49,5.49,0,0,0,.58.3,4.92,4.92,0,0,0,1.75.36h7.17a37.49,37.49,0,0,0,34.88,25h.79a37.5,37.5,0,0,0,34.88-25H217a37.49,37.49,0,0,0,34.88,25h.79a37.5,37.5,0,0,0,34.88-25M124.88,10.17c1.65-.06,3.28-.19,5-.19,36.45,0,68.73,18.57,85.15,30h-90.1Zm-10,.77V37.18L77.57,20.13a159.12,159.12,0,0,1,37.32-9.19m-47.47,124a27.48,27.48,0,1,1,27.47-27.48A27.51,27.51,0,0,1,67.43,134.9m147.46-25H104.76c.06-.83.13-1.66.13-2.5a37.46,37.46,0,1,0-74.91,0c0,.85.07,1.67.12,2.5H26.65L10,97.43V45H30a5.11,5.11,0,0,0,.62-.13,4.74,4.74,0,0,0,1-.2,5.16,5.16,0,0,0,.93-.46A4.73,4.73,0,0,0,33,43.9,182.28,182.28,0,0,1,65,25.38l52.8,24.13h.07a4.88,4.88,0,0,0,1.94.42h109.5l54.59,5.38A24.87,24.87,0,0,1,304.67,80v5h0a5,5,0,0,0,0,10h5v15H289.55c.06-.83.12-1.66.12-2.5a37.46,37.46,0,1,0-74.92,0c0,.85.08,1.67.13,2.5m37.33,25a27.48,27.48,0,1,1,27.47-27.48,27.51,27.51,0,0,1-27.47,27.48"/></g></g></svg>