<svg xmlns="http://www.w3.org/2000/svg" viewBox="0 0 288.55 176.07"><title>Bicicleta</title><g id="Capa_2" data-name="Capa 2"><g id="Capa_1-2" data-name="Capa 1"><polygon points="262.14 62.66 232.74 62.66 223.58 22.74 270.31 22.74 262.14 62.66"/><polygon points="212.39 55.32 91.72 55.27 92.22 46.97 212.89 47.02 212.39 55.32"/><polygon points="217.77 53.71 128.94 135.21 124 128.52 212.83 47.02 217.77 53.71"/><polygon points="48.73 127.57 129.03 135.22 129.42 126.92 49.12 119.26 48.73 127.57"/><polygon points="54.57 125.53 99.78 53.26 94.32 47.02 49.11 119.28 54.57 125.53"/><polygon points="125.77 130.98 78.89 23.38 85.89 18.88 132.76 126.48 125.77 130.98"/><polygon points="213.39 120.57 209.94 17.85 217.75 15 222.6 121.53 213.39 120.57"/><path d="M213,108.29l9,.09s-1.61,21.7,10.69,18.2a4.63,4.63,0,0,1,2.26,6.39s-1.65,3.09-7.95,1.51c0,0-17.07-1.22-14-26.19"/><path d="M216.81,1.69l-.05,8.66s-25.3-5.67-33.8,4c0,0-2.5,5.26-8.4.32,0,0-2.85-2.08,2.15-7.81,0,0,8.83-11,40.11-5.2"/><path d="M209.89,18.31a4.72,4.72,0,0,0,5,4.42l1.65-.1a4.72,4.72,0,0,0,4.43-5L220.26,5.9a4.72,4.72,0,0,0-5-4.42l-1.64.1a4.71,4.71,0,0,0-4.43,5l.7,11.75"/><path d="M71.89,7.38s3.88,1.85,19,5.29c6,1.36,12.31.27,17.8,2.45,0,0,6.91,3.51-.49,8.14,0,0-14.73,8.24-40.83,1.25,0,0-8.85-2.64-9-8.89,0,0-2.08-14,13.49-8.24"/><path d="M234,163.5a42,42,0,1,1,42-42,42,42,0,0,1-42,42M234,67a54.54,54.54,0,1,0,54.57,54.55A54.57,54.57,0,0,0,234,67"/><path d="M54.57,163.5a42,42,0,1,1,42-42,42,42,0,0,1-42,42m0-96.52a54.54,54.54,0,1,0,54.58,54.55A54.57,54.57,0,0,0,54.57,67"/><rect x="211.1" y="22.74" width="59.95" height="5.13"/></g></g></svg>