<svg width="19" height="19" viewBox="0 0 19 19" fill="none" xmlns="http://www.w3.org/2000/svg">
<path d="M9.5 7.33C9.07081 7.33 8.65127 7.45727 8.29441 7.69571C7.93756 7.93415 7.65942 8.27306 7.49518 8.66958C7.33094 9.06609 7.28797 9.50241 7.3717 9.92334C7.45543 10.3443 7.6621 10.7309 7.96558 11.0344C8.26906 11.3379 8.65571 11.5446 9.07665 11.6283C9.49759 11.712 9.93391 11.6691 10.3304 11.5048C10.7269 11.3406 11.0658 11.0624 11.3043 10.7056C11.5427 10.3487 11.67 9.92918 11.67 9.5C11.67 9.21503 11.6139 8.93285 11.5048 8.66958C11.3958 8.4063 11.2359 8.16708 11.0344 7.96558C10.8329 7.76407 10.5937 7.60423 10.3304 7.49518C10.0671 7.38613 9.78497 7.33 9.5 7.33ZM18.1887 5.18625C18.1841 4.51054 18.0597 3.841 17.8212 3.20875C17.6456 2.7461 17.3739 2.32596 17.024 1.97604C16.674 1.62612 16.2539 1.35438 15.7912 1.17875C15.159 0.940281 14.4895 0.815853 13.8137 0.81125C12.685 0.75 12.3525 0.75 9.5 0.75C6.6475 0.75 6.315 0.75 5.18625 0.81125C4.51054 0.815853 3.841 0.940281 3.20875 1.17875C2.7461 1.35438 2.32596 1.62612 1.97604 1.97604C1.62612 2.32596 1.35438 2.7461 1.17875 3.20875C0.940281 3.841 0.815853 4.51054 0.81125 5.18625C0.75 6.315 0.75 6.6475 0.75 9.5C0.75 12.3525 0.75 12.685 0.81125 13.8137C0.820668 14.4918 0.944928 15.1634 1.17875 15.8C1.3536 16.2605 1.62511 16.6782 1.975 17.025C2.32342 17.377 2.74447 17.6488 3.20875 17.8212C3.841 18.0597 4.51054 18.1841 5.18625 18.1887C6.315 18.25 6.6475 18.25 9.5 18.25C12.3525 18.25 12.685 18.25 13.8137 18.1887C14.4895 18.1841 15.159 18.0597 15.7912 17.8212C16.2555 17.6488 16.6766 17.377 17.025 17.025C17.3749 16.6782 17.6464 16.2605 17.8212 15.8C18.0595 15.1646 18.1839 14.4923 18.1887 13.8137C18.25 12.685 18.25 12.3525 18.25 9.5C18.25 6.6475 18.25 6.315 18.1887 5.18625ZM15.9662 12.1862C15.9382 12.7262 15.8229 13.2581 15.625 13.7612C15.4551 14.181 15.2026 14.5623 14.8824 14.8824C14.5623 15.2026 14.181 15.4551 13.7612 15.625C13.2533 15.8119 12.7185 15.9153 12.1775 15.9312H6.8225C6.28151 15.9153 5.74668 15.8119 5.23875 15.625C4.80484 15.4638 4.41299 15.2065 4.0925 14.8725C3.77546 14.5586 3.53061 14.1794 3.375 13.7612C3.18736 13.2538 3.08678 12.7184 3.0775 12.1775V6.8225C3.08678 6.2816 3.18736 5.74615 3.375 5.23875C3.53625 4.80484 3.79349 4.41299 4.1275 4.0925C4.44279 3.77717 4.82161 3.53258 5.23875 3.375C5.74668 3.1881 6.28151 3.08468 6.8225 3.06875H12.1775C12.7185 3.08468 13.2533 3.1881 13.7612 3.375C14.1952 3.53625 14.587 3.79349 14.9075 4.1275C15.2245 4.4414 15.4694 4.82062 15.625 5.23875C15.8119 5.74668 15.9153 6.28151 15.9312 6.8225V9.5C15.9312 11.3025 15.9925 11.4862 15.9662 12.1775V12.1862ZM14.5662 5.67625C14.4621 5.39361 14.2978 5.13694 14.0848 4.92394C13.8718 4.71094 13.6151 4.54668 13.3325 4.4425C12.9444 4.30798 12.5357 4.24282 12.125 4.25H6.875C6.46223 4.25403 6.05343 4.33105 5.6675 4.4775C5.38919 4.57695 5.13523 4.7345 4.92251 4.93968C4.70979 5.14485 4.54318 5.39296 4.43375 5.6675C4.30668 6.0572 4.2446 6.46514 4.25 6.875V12.125C4.25867 12.5373 4.33555 12.9453 4.4775 13.3325C4.58168 13.6151 4.74594 13.8718 4.95894 14.0848C5.17194 14.2978 5.42861 14.4621 5.71125 14.5662C6.08458 14.7035 6.47745 14.7803 6.875 14.7937H12.125C12.5378 14.7897 12.9466 14.7127 13.3325 14.5662C13.6151 14.4621 13.8718 14.2978 14.0848 14.0848C14.2978 13.8718 14.4621 13.6151 14.5662 13.3325C14.7127 12.9466 14.7897 12.5378 14.7937 12.125V6.875C14.794 6.46182 14.7168 6.05226 14.5662 5.6675V5.67625ZM9.5 12.8425C9.06147 12.8425 8.62724 12.756 8.2222 12.5879C7.81716 12.4198 7.44927 12.1735 7.13958 11.863C6.8299 11.5525 6.58452 11.1839 6.4175 10.7785C6.25048 10.373 6.1651 9.93853 6.16625 9.5C6.16625 8.83854 6.36251 8.19196 6.73018 7.6421C7.09784 7.09224 7.62039 6.66383 8.23166 6.4111C8.84293 6.15838 9.51544 6.0927 10.1641 6.22238C10.8127 6.35206 11.4082 6.67127 11.8753 7.13961C12.3425 7.60794 12.6601 8.20433 12.7881 8.85329C12.9161 9.50225 12.8486 10.1746 12.5943 10.7852C12.34 11.3958 11.9102 11.9172 11.3594 12.2834C10.8085 12.6497 10.1615 12.8442 9.5 12.8425ZM13 6.81375C12.8066 6.79328 12.6276 6.70194 12.4975 6.55735C12.3674 6.41275 12.2954 6.22513 12.2954 6.03062C12.2954 5.83612 12.3674 5.64849 12.4975 5.5039C12.6276 5.35931 12.8066 5.26797 13 5.2475C13.1934 5.26797 13.3724 5.35931 13.5025 5.5039C13.6326 5.64849 13.7046 5.83612 13.7046 6.03062C13.7046 6.22513 13.6326 6.41275 13.5025 6.55735C13.3724 6.70194 13.1934 6.79328 13 6.81375Z" fill="#F9F9F9"/>
</svg>
