<svg width="18" height="24" viewBox="0 0 18 24" xmlns="http://www.w3.org/2000/svg">
<path d="M3.0997 8.0769L7.29503 5.46972C7.76599 5.17484 8.33882 5.02344 8.92211 5.03966C9.63356 5.05484 10.3218 5.25929 10.8912 5.62458C11.4605 5.98988 11.8827 6.49786 12.099 7.07793C12.3425 7.73084 12.5651 8.17209 12.7666 8.40168C13.3757 9.09693 14.1658 9.66116 15.0743 10.0496C15.9827 10.438 16.9844 10.6399 18 10.6393V12.8791C16.6482 12.8804 15.3129 12.6252 14.0902 12.132C12.8675 11.6388 11.7878 10.9197 10.9288 10.0267L10.0164 14.456L12.7143 16.3935L15.6242 23.234L13.1633 24L10.4929 17.7239L6.05541 14.5378C5.69125 14.2862 5.41258 13.9556 5.24844 13.5806C5.08429 13.2056 5.04066 12.7998 5.1221 12.4054L5.78838 9.17443L4.90219 9.72543L2.11796 13.0046L0 11.6875L3.07745 8.06346L3.0997 8.0769ZM10.8005 4.4797C10.1062 4.4797 9.44029 4.24372 8.94932 3.82366C8.45836 3.40361 8.18253 2.8339 8.18253 2.23985C8.18253 1.64581 8.45836 1.07609 8.94932 0.656037C9.44029 0.235983 10.1062 0 10.8005 0C11.4949 0 12.1608 0.235983 12.6517 0.656037C13.1427 1.07609 13.4185 1.64581 13.4185 2.23985C13.4185 2.8339 13.1427 3.40361 12.6517 3.82366C12.1608 4.24372 11.4949 4.4797 10.8005 4.4797ZM6.91019 19.2414L2.70308 23.5308L0.697695 22.0916L4.59327 18.1204L5.56978 15.679L7.91419 17.3588L6.91019 19.2414Z" fill="#ffffff"/>
</svg>
