<svg width="200" height="200" viewBox="0 0 100 100" fill="none" xmlns="http://www.w3.org/2000/svg">
<g filter="url(#filter0_d_64_3453)">
<path d="M39 66.25L66 46L39 25.75V66.25ZM48 1C23.16 1 3 21.16 3 46C3 70.84 23.16 91 48 91C72.84 91 93 70.84 93 46C93 21.16 72.84 1 48 1ZM48 82C28.155 82 12 65.845 12 46C12 26.155 28.155 10 48 10C67.845 10 84 26.155 84 46C84 65.845 67.845 82 48 82Z" fill="#B4D9F6"/>
</g>
<defs>
<filter id="filter0_d_64_3453" x="0" y="0" width="100" height="100" filterUnits="userSpaceOnUse" color-interpolation-filters="sRGB">
<feFlood flood-opacity="0" result="BackgroundImageFix"/>
<feColorMatrix in="SourceAlpha" type="matrix" values="0 0 0 0 0 0 0 0 0 0 0 0 0 0 0 0 0 0 127 0" result="hardAlpha"/>
<feOffset dx="2" dy="4"/>
<feGaussianBlur stdDeviation="2.5"/>
<feComposite in2="hardAlpha" operator="out"/>
<feColorMatrix type="matrix" values="0 0 0 0 0 0 0 0 0 0 0 0 0 0 0 0 0 0 0.25 0"/>
<feBlend mode="normal" in2="BackgroundImageFix" result="effect1_dropShadow_64_3453"/>
<feBlend mode="normal" in="SourceGraphic" in2="effect1_dropShadow_64_3453" result="shape"/>
</filter>
</defs>
</svg>
